<?xml version="1.0" encoding="UTF-8"?>
<svg width="29px" height="30px" viewBox="0 0 29 30" version="1.1" xmlns="http://www.w3.org/2000/svg" xmlns:xlink="http://www.w3.org/1999/xlink">
    <title>编组 4</title>
    <defs>
        <filter id="filter-1">
            <feColorMatrix in="SourceGraphic" type="matrix" values="0 0 0 0 1.000000 0 0 0 0 0.431373 0 0 0 0 0.203922 0 0 0 1.000000 0"></feColorMatrix>
        </filter>
    </defs>
    <g id="页面-1" stroke="none" stroke-width="1" fill="none" fill-rule="evenodd">
        <g id="市区-未完成备份-12" transform="translate(-718.000000, -250.000000)">
            <g id="编组-4" transform="translate(718.852801, 251.250000)">
                <rect id="矩形备份-7" stroke="#FF6E34" x="0" y="0" width="27.3525067" height="27.3525067" rx="4"></rect>
                <g filter="url(#filter-1)" id="编组">
                    <g transform="translate(7.176253, 5.176253)">
                        <path d="M3.169155,2.10601994 L4.14723926,0.149851419 C4.19178969,0.0607505752 4.28291555,0.00405003834 4.38214149,0.00405003834 L8.2600532,0.00405003834 C8.35927914,0.00405003834 8.450405,0.0607505752 8.49495543,0.149851419 L9.47303969,2.10601994 L12.362742,2.10601994 C12.5085434,2.10601994 12.6259945,2.22347105 12.6259945,2.36927243 L12.6259945,3.94473735 C12.6259945,4.09053873 12.5085434,4.20798984 12.362742,4.20798984 L0.279452646,4.20798984 C0.133651265,4.20798984 0.0162001534,4.09053873 0.0162001534,3.94473735 L0.0162001534,2.36927243 C0.0162001534,2.22347105 0.133651265,2.10601994 0.279452646,2.10601994 L3.169155,2.10601994 Z M1.3304376,5.25694977 L11.3117571,5.25694977 C11.4575585,5.25694977 11.5750096,5.37440088 11.5750096,5.52020226 L11.5750096,15.7627492 C11.5750096,16.3439297 11.1052051,16.8137342 10.5240246,16.8137342 L2.12019507,16.8137342 C1.53901457,16.8137342 1.06918433,16.3439297 1.06918433,15.7627492 L1.06918433,5.52020226 C1.0671851,5.37440088 1.18463622,5.25694977 1.3304376,5.25694977 Z M4.21811493,8.93438459 L4.21811493,13.1362994 C4.21811493,13.4258771 4.45301716,13.6607793 4.7425949,13.6607793 C5.03217264,13.6607793 5.26707487,13.4258771 5.26707487,13.1362994 L5.26707487,8.93438459 C5.26707487,8.64480684 5.03217264,8.40990462 4.7425949,8.40990462 C4.45504218,8.40990462 4.21811493,8.64480684 4.21811493,8.93438459 Z M7.37106979,8.93438459 L7.37106979,13.1362994 C7.37106979,13.4258771 7.60597201,13.6607793 7.89554975,13.6607793 C8.18512749,13.6607793 8.42002972,13.4258771 8.42002972,13.1362994 L8.42002972,8.93438459 C8.42002972,8.64480684 8.18512749,8.40990462 7.89554975,8.40990462 C7.60597201,8.40990462 7.37106979,8.64480684 7.37106979,8.93438459 Z" id="形状" fill="#000000" fill-rule="nonzero"></path>
                    </g>
                </g>
            </g>
        </g>
    </g>
</svg>