<?xml version="1.0" encoding="UTF-8"?>
<svg width="29px" height="30px" viewBox="0 0 29 30" version="1.1" xmlns="http://www.w3.org/2000/svg" xmlns:xlink="http://www.w3.org/1999/xlink">
    <title>编组 3</title>
    <defs>
        <filter id="filter-1">
            <feColorMatrix in="SourceGraphic" type="matrix" values="0 0 0 0 0.392157 0 0 0 0 0.584314 0 0 0 0 0.956863 0 0 0 1.000000 0"></feColorMatrix>
        </filter>
    </defs>
    <g id="页面-1" stroke="none" stroke-width="1" fill="none" fill-rule="evenodd">
        <g id="市区-未完成备份-12" transform="translate(-671.000000, -250.000000)">
            <g id="编组-3" transform="translate(671.500294, 251.250000)">
                <rect id="矩形" stroke="#6495F4" x="0" y="0" width="27.3525067" height="27.3525067" rx="4"></rect>
                <g filter="url(#filter-1)" id="编组">
                    <g transform="translate(5.676253, 5.676253)">
                        <path d="M14.8367939,2.78612179 C14.7373848,2.89795692 14.6441889,2.99736592 14.557206,3.0843488 L14.3335358,3.30801906 C14.258979,3.38257581 14.1906353,3.44470644 14.1285047,3.49441094 L11.6122143,0.959481339 C11.7116233,0.860072335 11.8358845,0.742024143 11.984998,0.605336762 C12.1341116,0.468649382 12.2583728,0.363027315 12.3577818,0.288470562 C12.6063043,0.0896525539 12.873466,0.0026696754 13.1592669,0.0275219264 C13.4450678,0.0523741774 13.6749511,0.108291742 13.8489169,0.195274621 C14.0353088,0.294683625 14.2434464,0.468649382 14.4733297,0.717171892 C14.703213,0.965694402 14.8802853,1.22664304 15.0045465,1.5000178 C15.0666772,1.67398356 15.1070621,1.87901463 15.1257013,2.11511101 C15.1443405,2.3512074 15.048038,2.57487765 14.8367939,2.78612179 Z M7.71662394,4.85507169 L10.6056981,1.96599751 L13.1219885,4.48228792 C12.0657679,5.53850859 11.1027431,6.49532025 10.2329144,7.35272291 C9.86013059,7.71308055 9.49666642,8.07033166 9.14252184,8.42447624 C8.78837726,8.77862081 8.465298,9.09548701 8.17328405,9.37507484 C7.8812701,9.65466266 7.64206719,9.88765251 7.4556753,10.0740444 L7.12016991,10.4095498 C7.03318704,10.4965327 6.93377803,10.5835155 6.8219429,10.6704984 C6.71010777,10.7574813 6.58584652,10.8320381 6.44915914,10.8941687 C6.31247176,10.9562993 6.12297334,11.0308561 5.8806639,11.1178389 C5.63835445,11.2048218 5.38672541,11.2886982 5.12577677,11.369468 C4.86482814,11.4502378 4.61630563,11.5247946 4.38020924,11.5931382 C4.14411286,11.6614819 3.96393404,11.7018668 3.83967278,11.714293 C3.6035764,11.7391452 3.47620861,11.7173995 3.45756942,11.6490558 C3.43893023,11.5807121 3.44824983,11.4284921 3.4855282,11.1923957 C3.49795433,11.0681344 3.52901964,10.8848491 3.57872415,10.6425396 C3.62842865,10.4002302 3.67813315,10.1548142 3.72783765,9.9062917 C3.77754215,9.65776919 3.83035319,9.42477934 3.88627075,9.20732214 C3.94218832,8.98986495 3.98878629,8.83764491 4.02606466,8.75066203 C4.08819529,8.61397465 4.15343245,8.49592646 4.22177614,8.39651745 C4.29011983,8.29710845 4.3864223,8.18527332 4.51068356,8.06101207 L7.71662394,4.85507169 Z M14.0353088,7.55775398 C14.2962574,7.55775398 14.5447799,7.61988461 14.7808763,7.74414587 C15.0169727,7.86840712 15.1350209,8.12314269 15.1350209,8.50835258 L15.1350209,12.7394483 C15.1350209,13.0873798 15.0697837,13.4073526 14.9393094,13.6993665 C14.8088351,13.9913805 14.6317628,14.246116 14.4080925,14.4635732 C14.1844223,14.6810304 13.9296867,14.8487831 13.6438858,14.9668313 C13.3580849,15.0848795 13.066071,15.1439036 12.767844,15.1439036 L2.36717691,15.1439036 C2.0689499,15.1439036 1.77693595,15.0786664 1.49113506,14.9481921 C1.20533417,14.8177178 0.953705133,14.6406455 0.736247936,14.4169753 C0.51879074,14.193305 0.341718451,13.9292498 0.205031071,13.6248098 C0.0683436903,13.3203697 0,12.9941839 0,12.6462524 L0,2.26422452 C0,2.01570201 0.0683436903,1.7578599 0.205031071,1.4906982 C0.341718451,1.22353651 0.51879074,0.981227059 0.736247936,0.763769863 C0.953705133,0.546312666 1.19912111,0.366133846 1.47249587,0.223233403 C1.74587063,0.0803329598 2.01924539,0.00888273816 2.29262016,0.00888273816 L6.63555102,0.00888273816 C6.98348253,0.00888273816 7.22889851,0.136250525 7.37179896,0.390986097 C7.5146994,0.64572167 7.58614962,0.903563775 7.58614962,1.16451241 C7.58614962,1.42546105 7.5146994,1.67709009 7.37179896,1.91939953 C7.22889851,2.16170898 6.98348253,2.28286371 6.63555102,2.28286371 L3.22457957,2.28286371 C2.96363093,2.28286371 2.7523868,2.37295312 2.59084717,2.55313194 C2.42930754,2.73331076 2.34853772,2.95387448 2.34853772,3.21482312 L2.34853772,11.9752416 C2.34853772,12.2237641 2.42930754,12.4319017 2.59084717,12.5996544 C2.7523868,12.7674071 2.96363093,12.8512834 3.22457957,12.8512834 L11.8545237,12.8512834 C12.1154724,12.8512834 12.3391426,12.7674071 12.5255345,12.5996544 C12.7119264,12.4319017 12.8051223,12.2237641 12.8051223,11.9752416 L12.8051223,8.50835258 C12.8051223,8.33438683 12.8455072,8.18527332 12.9262771,8.06101207 C13.0070469,7.93675081 13.1064559,7.83734181 13.2245041,7.76278505 C13.3425523,7.6882283 13.4730266,7.63541727 13.615927,7.60435195 C13.7588275,7.57328664 13.8986214,7.55775398 14.0353088,7.55775398 L14.0353088,7.55775398 Z" id="形状" fill="#000000" fill-rule="nonzero"></path>
                    </g>
                </g>
            </g>
        </g>
    </g>
</svg>