<?xml version="1.0" standalone="no"?><!DOCTYPE svg PUBLIC "-//W3C//DTD SVG 1.1//EN" "http://www.w3.org/Graphics/SVG/1.1/DTD/svg11.dtd"><svg t="1658303823161" class="icon" viewBox="0 0 1025 1024" version="1.1" xmlns="http://www.w3.org/2000/svg" p-id="2738" xmlns:xlink="http://www.w3.org/1999/xlink" width="200.1953125" height="200"><defs><style type="text/css">@font-face { font-family: feedback-iconfont; src: url("//at.alicdn.com/t/font_1031158_u69w8yhxdu.woff2?t=1630033759944") format("woff2"), url("//at.alicdn.com/t/font_1031158_u69w8yhxdu.woff?t=1630033759944") format("woff"), url("//at.alicdn.com/t/font_1031158_u69w8yhxdu.ttf?t=1630033759944") format("truetype"); }
</style></defs><path d="M331.041876 574.606365l-3.430486-3.430486c8.576214-13.721943 15.437186-29.159129 24.013401-42.881072-34.304858 24.0134-54.887772 58.318258-61.748744 102.914573 15.437186-13.721943 29.159129-27.443886 44.596315-39.450586 77.18593-61.748744 168.093802-90.907873 264.147403-102.914573 15.437186-1.715243 29.159129-3.430486 44.596315-5.145729 3.430486 0 6.860972-3.430486 10.291458-6.860971-118.351759-5.145729-226.41206 22.298157-322.465662 97.768844z" fill="#ffffff" p-id="2739"></path><path d="M998.271357 0H25.728643C12.0067 0 0 12.0067 0 25.728643V806.164154c0 13.721943 12.0067 25.728643 25.728643 25.728643h430.525963v78.901173H241.849246c-32.589615 0-58.318258 22.298157-58.318258 49.742043v13.721943c0 27.443886 25.728643 49.742044 58.318258 49.742044h542.016751c32.589615 0 58.318258-22.298157 58.318258-49.742044V960.536013c0-27.443886-25.728643-49.742044-58.318258-49.742043H569.460637v-78.901173h430.525963c13.721943 0 25.728643-12.0067 25.728643-25.728643V25.728643C1024 12.0067 1011.9933 0 998.271357 0z m-152.656617 468.261307c-22.298157 54.887772-56.603015 101.19933-106.345058 133.788944-63.463987 41.165829-130.358459 54.887772-204.113903 36.020101-30.874372-6.860972-61.748744-15.437186-90.907873-24.013401-54.887772-13.721943-104.629816 0-145.795645 37.735344-10.291457 10.291457-10.291457 10.291457-27.443886 0l1.715243-1.715243h-1.715243c5.145729-30.874372 6.860972-60.033501 13.721943-87.477387 20.582915-96.053601 73.755444-174.954774 140.649917-246.994975l30.874371-30.874372c3.430486-3.430486 3.430486-6.860972 3.430486-12.0067-99.484087 68.609715-164.663317 159.517588-190.39196 277.869347h-3.430485c-3.430486-20.582915-8.576214-42.881072-10.291458-63.463987-6.860972-66.894472 3.430486-126.927973 51.457287-178.385259 27.443886-29.159129 60.033501-51.457286 94.338358-70.324959 41.165829-24.0134 84.046901-42.881072 118.351759-75.470686 12.0067-10.291457 22.298157-22.298157 32.589615-32.589615 8.576214-8.576214 17.152429-17.152429 29.159129-12.0067 12.0067 3.430486 17.152429 13.721943 20.582914 25.728643 17.152429 56.603015 20.582915 113.20603 1.715243 169.809045-10.291457 34.304858-27.443886 65.179229-49.742043 90.907873 25.728643 0 51.457286 3.430486 77.185929 6.860971 46.311558 6.860972 92.623116 18.867672 138.934674 17.152429 15.437186 0 30.874372-3.430486 46.311557-5.145728 12.0067-1.715243 22.298157-1.715243 30.874372 8.576214 5.145729 13.721943 3.430486 24.0134-1.715243 36.020101z" fill="#ffffff" p-id="2740"></path></svg>