<?xml version="1.0" encoding="UTF-8"?>
<svg width="26px" height="19px" viewBox="0 0 26 19" version="1.1" xmlns="http://www.w3.org/2000/svg" xmlns:xlink="http://www.w3.org/1999/xlink">
    <title>形状备份</title>
    <g id="页面-1" stroke="none" stroke-width="1" fill="none" fill-rule="evenodd">
        <g id="市区-未完成备份-15" transform="translate(-598.000000, -184.000000)" fill="#FFFFFF" fill-rule="nonzero">
            <path d="M610.666765,184 C615.311315,184 619.454898,186.931067 623.088331,192.657033 C623.415262,193.171463 623.415262,193.828537 623.088331,194.342967 C619.454898,200.068933 615.311315,203 610.666765,203 C606.022215,203 601.878631,200.068933 598.245198,194.342967 C597.918267,193.828537 597.918267,193.171463 598.245198,192.657033 C601.878631,186.931067 606.022215,184 610.666765,184 Z M610.666765,187.8 C607.518781,187.8 604.966765,190.352017 604.966765,193.5 C604.966765,196.647983 607.518781,199.2 610.666765,199.2 C613.814748,199.2 616.366765,196.647983 616.366765,193.5 C616.366765,190.352017 613.814748,187.8 610.666765,187.8 Z M610.666765,197.3 C612.765315,197.3 614.466765,195.59855 614.466765,193.5 C614.466765,191.40145 612.765315,189.7 610.666765,189.7 C608.568215,189.7 606.866765,191.40145 606.866765,193.5 C606.866765,195.59855 608.568215,197.3 610.666765,197.3 Z" id="形状备份"></path>
        </g>
    </g>
</svg>