<?xml version="1.0" encoding="UTF-8"?>
<svg width="26px" height="19px" viewBox="0 0 26 19" version="1.1" xmlns="http://www.w3.org/2000/svg" xmlns:xlink="http://www.w3.org/1999/xlink">
    <title>形状</title>
    <g id="页面-1" stroke="none" stroke-width="1" fill="none" fill-rule="evenodd">
        <g id="市区-未完成备份-15" transform="translate(-324.000000, -184.000000)" fill="#6495F4" fill-rule="nonzero">
            <path d="M336.666765,184 C341.311315,184 345.454898,186.931067 349.088331,192.657033 C349.415262,193.171463 349.415262,193.828537 349.088331,194.342967 C345.454898,200.068933 341.311315,203 336.666765,203 C332.022215,203 327.878631,200.068933 324.245198,194.342967 C323.918267,193.828537 323.918267,193.171463 324.245198,192.657033 C327.878631,186.931067 332.022215,184 336.666765,184 Z M336.666765,187.8 C333.518781,187.8 330.966765,190.352017 330.966765,193.5 C330.966765,196.647983 333.518781,199.2 336.666765,199.2 C339.814748,199.2 342.366765,196.647983 342.366765,193.5 C342.366765,190.352017 339.814748,187.8 336.666765,187.8 Z M336.666765,197.3 C338.765315,197.3 340.466765,195.59855 340.466765,193.5 C340.466765,191.40145 338.765315,189.7 336.666765,189.7 C334.568215,189.7 332.866765,191.40145 332.866765,193.5 C332.866765,195.59855 334.568215,197.3 336.666765,197.3 Z" id="形状"></path>
        </g>
    </g>
</svg>