<?xml version="1.0" encoding="UTF-8"?>
<svg width="28px" height="27px" viewBox="0 0 28 27" version="1.1" xmlns="http://www.w3.org/2000/svg" xmlns:xlink="http://www.w3.org/1999/xlink">
    <title>编组</title>
    <g id="页面-1" stroke="none" stroke-width="1" fill="none" fill-rule="evenodd">
        <g id="市区-未完成备份-15" transform="translate(-323.000000, -365.000000)" fill-rule="nonzero">
            <g id="编组" transform="translate(323.166765, 365.000000)">
                <polygon id="路径" fill-opacity="0" fill="#FFFFFF" points="0 0 26.5 0 26.5 26.5 0 26.5"></polygon>
                <path d="M1.47222223,5.8888889 L22.8194445,5.8888889 C24.0390733,5.8888889 25.0277778,6.87759341 25.0277778,8.09722223 L25.0277778,20.6111111 C25.0277778,21.1967975 24.7951148,21.7584957 24.3809719,22.1726386 C23.9668291,22.5867814 23.4051309,22.8194445 22.8194445,22.8194445 L3.68055555,22.8194445 C3.09486913,22.8194445 2.53317091,22.5867814 2.11902807,22.1726386 C1.70488524,21.7584957 1.47222223,21.1967975 1.47222223,20.6111111 L1.47222223,5.8888889 Z" id="路径" fill="#6495F4"></path>
                <path d="M10.3055555,13.9861111 L16.1944445,13.9861111 C16.6851852,13.9861111 16.9305555,14.2314815 16.9305555,14.7222222 L16.9305555,14.7222222 C16.9305555,15.212963 16.6851852,15.4583333 16.1944445,15.4583333 L10.3055555,15.4583333 C9.81481482,15.4583333 9.56944445,15.212963 9.56944445,14.7222222 L9.56944445,14.7222222 C9.56944445,14.2314815 9.81481482,13.9861111 10.3055555,13.9861111 Z" id="路径" fill="#FFFFFF"></path>
                <path d="M13.9861111,11.7777778 L13.9861111,17.6666667 C13.9861111,18.1574074 13.7407407,18.4027778 13.25,18.4027778 L13.25,18.4027778 C12.7592593,18.4027778 12.5138889,18.1574074 12.5138889,17.6666667 L12.5138889,11.7777778 C12.5138889,11.287037 12.7592593,11.0416667 13.25,11.0416667 L13.25,11.0416667 C13.7407407,11.0416667 13.9861111,11.287037 13.9861111,11.7777778 Z" id="路径" fill="#FFFFFF"></path>
                <path d="M10.3055555,3.68055555 C11.9317273,3.68055555 13.25,4.99882823 13.25,6.625 L13.25,9.56944445 L1.47222223,9.56944445 L1.47222223,6.625 C1.47222223,4.99882823 2.79049491,3.68055555 4.41666668,3.68055555 L10.3055555,3.68055555 Z M10.3055555,5.1527777 L4.41666668,5.1527777 C3.64623456,5.15253396 3.00590738,5.74632106 2.948125,6.51458332 L2.94444445,6.625 L2.94444445,8.09722223 L11.7777778,8.09722223 L11.7777778,6.625 C11.7780216,5.85456788 11.1842345,5.2142407 10.4159722,5.15645832 L10.3055555,5.1527777 Z" id="形状" fill="#6495F4"></path>
            </g>
        </g>
    </g>
</svg>