<?xml version="1.0" encoding="UTF-8"?>
<svg width="22px" height="25px" viewBox="0 0 22 25" version="1.1" xmlns="http://www.w3.org/2000/svg" xmlns:xlink="http://www.w3.org/1999/xlink">
    <title>编组备份</title>
    <defs>
        <filter id="filter-1">
            <feColorMatrix in="SourceGraphic" type="matrix" values="0 0 0 0 1.000000 0 0 0 0 1.000000 0 0 0 0 1.000000 0 0 0 1.000000 0"></feColorMatrix>
        </filter>
    </defs>
    <g id="页面-1" stroke="none" stroke-width="1" fill="none" fill-rule="evenodd">
        <g id="编组备份" transform="translate(-600.000000, -273.000000)" filter="url(#filter-1)">
            <g transform="translate(600.166765, 273.500000)">
                <path d="M16.0638531,0.398773082 C15.2972475,-0.0924680633 14.318053,-0.105208505 13.5389258,0.365920886 L11.5349407,1.58145282 C10.6276798,2.13104714 9.49019536,2.13104714 8.58293447,1.58145282 L6.57894938,0.365920886 C5.79982216,-0.105208505 4.82062767,-0.0924680633 4.05402199,0.398773082 C2.92766033,1.1402945 1.43523114,2.32766742 0.951834255,3.8951874 C0.153994758,6.52336459 -1.07092354,9.75696119 1.96086659,13.3988639 C1.96086659,13.3988639 0.346414892,20.26967 4.18543086,23.5032665 C4.18543086,23.5032665 7.001335,24.7704234 6.61180157,22.2924278 C6.36306339,20.6826692 6.38183606,14.727032 10.0612841,14.4360552 C13.736039,14.7504979 13.7641981,20.6826692 13.5060736,22.2924278 C13.1306197,24.7704234 15.9324443,23.5032665 15.9324443,23.5032665 C19.7761534,20.26967 18.1570085,13.3988639 18.1570085,13.3988639 C21.1887987,9.76165435 19.9779599,6.52336459 19.1660409,3.8951874 C18.682644,2.32766742 17.1902148,1.14029452 16.0638531,0.398773082 Z" id="路径" fill="#22BECA" fill-rule="nonzero"></path>
            </g>
        </g>
    </g>
</svg>