<?xml version="1.0" standalone="no"?><!DOCTYPE svg PUBLIC "-//W3C//DTD SVG 1.1//EN" "http://www.w3.org/Graphics/SVG/1.1/DTD/svg11.dtd"><svg t="1657699429336" class="icon" viewBox="0 0 1024 1024" version="1.1" xmlns="http://www.w3.org/2000/svg" p-id="3561" xmlns:xlink="http://www.w3.org/1999/xlink" width="200" height="200"><defs><style type="text/css">@font-face { font-family: feedback-iconfont; src: url("//at.alicdn.com/t/font_1031158_u69w8yhxdu.woff2?t=1630033759944") format("woff2"), url("//at.alicdn.com/t/font_1031158_u69w8yhxdu.woff?t=1630033759944") format("woff"), url("//at.alicdn.com/t/font_1031158_u69w8yhxdu.ttf?t=1630033759944") format("truetype"); }
</style></defs><path d="M844.970667 219.648C827.392 162.645333 773.12 119.466667 732.16 92.501333a86.869333 86.869333 0 0 0-91.818667-1.194666l-72.874666 44.202666a103.594667 103.594667 0 0 1-107.349334 0l-72.874666-44.202666a86.869333 86.869333 0 0 0-91.818667 1.194666c-40.96 26.965333-95.232 70.144-112.810667 127.146667-29.013333 95.573333-73.557333 213.162667 36.693334 345.6 0 0-58.709333 249.856 80.896 367.445333 0 0 102.4 46.08 88.234666-44.032-9.045333-58.538667-8.362667-275.114667 125.44-285.696 133.632 11.434667 134.656 227.157333 125.269334 285.696-13.653333 90.112 88.234667 44.032 88.234666 44.032 139.776-117.589333 80.896-367.445333 80.896-367.445333 110.250667-132.266667 66.218667-250.026667 36.693334-345.6z" fill="#6495F4" p-id="3562"></path></svg>